<svg data-v-0dd9719b="" version="1.0" xmlns="http://www.w3.org/2000/svg" xmlns:xlink="http://www.w3.org/1999/xlink" width="100%" height="100%" viewBox="0 0 340.000000 250.000000" preserveAspectRatio="xMidYMid meet" color-interpolation-filters="sRGB" style="margin: auto;"> <rect data-v-0dd9719b="" x="0" y="0" width="100%" height="100%" fill="#ffffff" fill-opacity="1" class="background"></rect> <rect data-v-0dd9719b="" x="0" y="0" width="100%" height="100%" fill="url(#watermark)" fill-opacity="1" class="watermarklayer"></rect> <g data-v-0dd9719b="" fill="#34487c" class="icon-text-wrapper icon-svg-group iconsvg" transform="translate(64.51499938964844,94.94560241699219)"><g class="iconsvg-imagesvg" transform="translate(0,0)"><g><rect fill="#34487c" fill-opacity="0" stroke-width="2" x="0" y="0" width="60" height="60.1087969224296" class="image-rect"></rect> <svg filter="url(#colors9309050158)" x="0" y="0" width="60" height="60.1087969224296" filtersec="colorsf2401032314" class="image-svg-svg primary" style="overflow: visible;"><svg xmlns="http://www.w3.org/2000/svg" viewBox="-0.6000000000000001 -0.6000000000000001 59 59.1"><path d="M39.9 45.6L29 56.5 1.4 29 29 1.4l22.1 22.1L29 45.6 12.3 29M34.4 6.8L12.3 29 29 45.6m-16.7-5.7L23.2 29l16.6 16.6L56.4 29 29 1.4" fill="none" stroke="#282828" stroke-width="2" stroke-miterlimit="10"></path></svg></svg> <defs><filter id="colors9309050158"><feColorMatrix type="matrix" values="0 0 0 0 0.203125  0 0 0 0 0.28125  0 0 0 0 0.484375  0 0 0 1 0" class="icon-fecolormatrix"></feColorMatrix></filter> <filter id="colorsf2401032314"><feColorMatrix type="matrix" values="0 0 0 0 0.99609375  0 0 0 0 0.99609375  0 0 0 0 0.99609375  0 0 0 1 0" class="icon-fecolormatrix"></feColorMatrix></filter> <filter id="colorsb7107279779"><feColorMatrix type="matrix" values="0 0 0 0 0  0 0 0 0 0  0 0 0 0 0  0 0 0 1 0" class="icon-fecolormatrix"></feColorMatrix></filter></defs></g></g> <g transform="translate(67,11.659399032592773)"><g data-gra="path-name" fill-rule="" class="tp-name iconsvg-namesvg"><g transform="scale(1)"><g><path d="M24.77-3.9L12.29-3.9 16.64-34.45 2.93-34.45 3.58-40.69 43.48-40.69 42.25-34.45 29.12-34.45 24.77-3.9ZM51.81-40.69L68.06-40.69 74.95-17.62 88.01-40.69 101.14-40.69 96.14-3.9 84.89-3.9 88.01-23.27 78.06-6.37 68.06-6.37 63.05-22.62 60.58-3.9 49.34-3.9 54.34-38.22 51.81-40.69ZM110.11-40.69L146.9-40.69 146.31-34.45 123.83-34.45 122.59-23.86 143.19-23.86 142.55-17.62 121.35-17.62 119.47-3.9 106.99-3.9 112-38.22 110.11-40.69Z" transform="translate(-2.930000066757202, 40.689998626708984)"></path></g> <!----> <!----> <!----> <!----> <!----> <!----> <!----></g></g> <!----></g></g><defs v-gra="od"></defs></svg>